<svg id="TEXTS" xmlns="http://www.w3.org/2000/svg" viewBox="0 0 271.19 283.28"><ellipse cx="135.59" cy="23.4" rx="9.08" ry="11.23"/><path d="M349.17,164.24C343.89,119,306.67,83.6,258.9,82.45c-51.51-1.25-94.3,40.77-94.06,95.4.95,11,2.19,24.82,9.2,37.72,11.36,20.9,27.43,36.23,49.5,45.27,7.28,3,13.66,1.68,19.48-3.38a63.31,63.31,0,0,0,11.27-13c1.8-2.74,2.93-2.29,4.53-.32,2.72,3.35,5.32,6.8,8.06,10.14,6.72,8.23,13.52,10.18,23.53,6.56C329.81,246.55,354,205.18,349.17,164.24Zm-56.88-2.63c-4.81,4.73-9.83,8.82-16.2,11.3-.85.34-2,1.23-3.07,0a3.21,3.21,0,0,1-.56-2.86c1-8.16,4.14-15.06,10.93-20.28,6.31-4.85,12.36-10,20.6-12.74C303.51,147.27,299,155,292.29,161.61Zm18.22-52.83c2.86,2.6,8.85,10.91,11,14.19C313.57,124.79,309.31,121.86,310.51,108.78ZM211.9,124.94c.24-1.21.52-2.42.75-3.63,3.93-21.27,8.84-25.57,33.1-28.56a85.92,85.92,0,0,1,43.49,5.78c9.15,3.71,16.34,16.19,15,25.88-.18,1.33-.49,2.19-2,2.69-10.76,3.64-21.6,8.63-27.84,17.89-1.39,2.07-2.06,1.55-2.84,1-1.79-4-1.81-8.06-4.92-11.71-3.82-4.49-1.45-6.48,2-8.23,5.5-2.78,4.86-2,10.94-3.25,3.41-.68,6.09-2.16,5.28-6.07s-3.94-4.34-7.29-3.45c-8.57,2.27-10.72,1.68-17.89,7.18-2.61,2-4.38,1.72-7,0-6.69-4.48-5.72-4.82-13.37-7.4-3.19-1.08-6.41-1.41-7.8,2.38s1.47,5.68,4.56,6.69c6.29,2.06,3.93,1.86,9.64,5.2,2.7,1.58,3.89,3,1.85,6.2a48,48,0,0,0-4.79,10.63c-1,3.11-2,3-4.05,1a60.51,60.51,0,0,0-23.8-15C212.27,129.16,211.38,127.55,211.9,124.94Zm53.25,104.83c5.89,4,16.94,10.28,28.77,10.28,7.31,0,14.35-2.39,20.09-5.16-5.18,3.75-14.42,9.3-23.79,9.3-10.06,0-19.84-5.23-24.66-8.26A13.66,13.66,0,0,1,265.15,229.77Zm-11.78-52.13a28.44,28.44,0,0,1-3.47-16.24,43.66,43.66,0,0,1,4.73-21.17c1.09-2.15,2-3.54,4.27-.78,7.37,9.06,8.08,29,1.42,38.56C257.52,182.06,255.61,181.61,253.37,177.64Zm-41-37.63c1.29-1.07,2.73.25,4,.81a53.13,53.13,0,0,1,22.2,18.91c2.15,3.17,2.72,6.81,2.85,10.87.44,3.17-.73,4.09-4.16,2.77-13.7-5.26-22.59-14.55-25.19-29.28C211.8,142.69,211.21,141,212.39,140ZM205,109.52c-1.78,16.77-.93,17.34-14,15.8C194.63,119.91,199.34,113.24,205,109.52Zm-23.51,27.53c3.26-3.72,10.1-2.1,10.91-2,7.69,1,10.5,4.37,11.61,11.48,1.28,8.25,8.36,18.64,13.78,26.67-13.95,19.87-41.33,23.55-45.23,10.69C169.53,174,173.75,145.86,181.48,137.05Zm-1.76,69.39c-2.78-8.77-2.66-9.09,6.58-9A46.41,46.41,0,0,0,219.79,184c4-3.79,7-5.78,12.61-2.67,5.3,3,11.56,4.12,16.91,7.2.15.08.28.18.42.27-3.29,4.07-7.4,14.83-7.82,16.58-2.14,8.79,1.44,14.47,5.57,21.71-5.06,2.9-16.83,8.79-28.93,8.79-9.83,0-19.53-4.74-25.59-8.42a83.84,83.84,0,0,1-11.63-17.62C181.24,209.65,179.79,206.63,179.72,206.44ZM250,234.28c-2.06,1.5-14.53,10.12-27.45,10.12-6.94,0-13.8-3.05-19-6.15-.77-.66-1.54-1.32-2.28-2a45,45,0,0,0,17.59,4c12.62,0,24.32-7.1,29.86-11.05C249.73,231.12,250.3,232.71,250,234.28Zm-12,14.32c-3.61,4.08-8,4.8-12.87,2.79-2.17-.89-4.24-1.88-6.27-2.91a29.39,29.39,0,0,0,4,.32c8.29,0,16.12-4,21.6-7.6C242.18,243.62,240.1,246.15,237.93,248.6Zm18.74-24.93c-3.05-4.75-6.59-8.88-6.86-13.91-.43-8.16,4-12.1,6.12-15.83C262.8,201.84,263.49,213.23,256.67,223.67ZM288.17,252c-4.41,2-8.42,1.57-11.63-1.77a41.14,41.14,0,0,0-3.62-3.37c-2-1.68-3.46-4.28-4.76-6,5.49,3.68,13.42,7.74,21.81,7.74a29.5,29.5,0,0,0,6.51-.79C293.81,249.29,291.05,250.7,288.17,252ZM334,206a85.17,85.17,0,0,1-11.17,19.3c-5.4,3.65-16.92,10.37-28.62,10.37s-23.17-5.55-28.46-8.52a29.56,29.56,0,0,1,2.09-5.16,29.9,29.9,0,0,0-2.05-30.06c-2.17-3.29-1-4.75,1.87-6,5-2.25,10.14-4.36,15.1-6.76,3.3-1.6,5.42-.84,7.91,1.84,10.52,11.31,24.21,16.57,39,19.54,2,.4,4.57-.26,5.54,2.32C334.73,204.07,334.38,205,334,206Zm5.3-39.67c.78,7.22,1.36,24.2-5.88,25-11.69,1.35-27.92-5.68-37.05-17.09l-1.1-1.32c7.25-7.52,14.86-16.61,16.43-26.4.41-2.58.22-12.23,5.65-12.16s13.52-1.36,16.09,6.16c.07.19,5.77,18.84,5.86,25.78" transform="translate(-121.71 -82.42)"/><path d="M157.2,365.7H121.71V306.11h13.42v48.7H157.2Z" transform="translate(-121.71 -82.42)"/><path d="M238.88,365.7H224.25L220,352.44h-21.2l-4.19,13.26H180.08l21.69-59.59h15.92Zm-21.94-23.56-6.4-20a26.08,26.08,0,0,1-1-5.36h-.34a22.54,22.54,0,0,1-1,5.19l-6.48,20.2Z" transform="translate(-121.71 -82.42)"/><path d="M312.5,306.11,293.1,344.5v21.2H279.68V344.75l-18.91-38.64H276.1l9.6,22.23c.17.42.62,2,1.37,4.86h.17a21.47,21.47,0,0,1,1.29-4.69l9.76-22.4Z" transform="translate(-121.71 -82.42)"/><path d="M392.9,365.7H378.27L374,352.44H352.84l-4.2,13.26H334.1l21.69-59.59h15.92ZM371,342.14l-6.4-20a26.72,26.72,0,0,1-1-5.36h-.33a23.08,23.08,0,0,1-1,5.19l-6.48,20.2Z" transform="translate(-121.71 -82.42)"/></svg>