<svg id="Layer_1" data-name="Layer 1" xmlns="http://www.w3.org/2000/svg" xmlns:xlink="http://www.w3.org/1999/xlink" viewBox="0 0 586.47 496.48"><defs><linearGradient id="Pantone_Metallics_10121_C" x1="389.98" y1="552.86" x2="976.45" y2="552.86" gradientUnits="userSpaceOnUse"><stop offset="0" stop-color="#b48642"/><stop offset="0.18" stop-color="#caa85a"/><stop offset="0.37" stop-color="#cdab60"/><stop offset="0.51" stop-color="#aa8930"/><stop offset="0.79" stop-color="#e4c27e"/><stop offset="1" stop-color="#a8872f"/></linearGradient><linearGradient id="Pantone_Metallics_10121_C-2" x1="546.83" y1="289.12" x2="819.6" y2="289.12" xlink:href="#Pantone_Metallics_10121_C"/><linearGradient id="Pantone_Metallics_10121_C-3" x1="357.35" y1="33.81" x2="365.48" y2="33.81" xlink:href="#Pantone_Metallics_10121_C"/><linearGradient id="Pantone_Metallics_10121_C-4" x1="324.19" y1="57.94" x2="365.48" y2="57.94" xlink:href="#Pantone_Metallics_10121_C"/></defs><path d="M791.77,621.41a4,4,0,0,1,.16,2.22l0,.29c-.52,4.05-1.61,8.73-5.38,10.23a11.48,11.48,0,0,1-4.34.55l-91.28,0a4.87,4.87,0,0,1-2.43-.41c-1.45-.84-1.63-2.83-1.63-4.52q-.08-50.85-.15-101.7c0-7.67,0-15.34,0-23,0-3.46.1-7.11,1.87-10.08,2.17-3.64,6.15-5.21,9.8-6.93.74-.35,11.13-5.33,11.13-4.65q0,67.86,0,135.71c0,1.64.12,3.56,1.48,4.5a5.13,5.13,0,0,0,3.29.54L787.73,620C789.24,620,791.1,620.06,791.77,621.41Zm178.12,13.31c-11.56,1-21.14-1.88-30.65-9.25a156.81,156.81,0,0,0-60.43-28.82c-3.23-.76-4.76-.47-6.14,2.89-4.19,10.07-9,19.92-13.21,30-1.61,3.84-3.86,5.34-8,5.11-5.79-.33-11.6-.22-17.4,0-3.75.14-5.89-1.25-7.32-4.76-4.16-10.25-8.68-20.35-12.85-30.61-1.17-2.84-2.46-4-5.68-3.23q-21.15,4.83-42.36,9.25A110,110,0,0,1,741.39,608c-6.43-.1-7.48-1.25-4.93-7.07,5-11.44,10.11-22.84,15.23-34.24l30.07-67.81,5.18-11.67a4,4,0,0,1,7.48.29s0,.08,0,.1l.06.16c7.55,21.26,16.45,42,25,62.9q2.21,5.39,4.34,10.78c1.77,4.46,2.66,10.52,6,12.74s9.31.62,14.12.56c8.22-.08,16.45.12,24.51,1.86,3.16.7,4.27-.8,5.36-3.23q18.41-40.85,36.87-81.63c.34-.74.64-1.48,1-2.21.7-1.44,1.26-3,3.35-2.91s2.57,1.75,3.15,3.17q5.9,14,11.69,28,22.5,54.74,45,109.51C977.62,634.15,977.34,634.09,969.89,634.72ZM804.82,577c-7.38-17.21-14.73-34.42-22.61-52.84-10.41,23.14-20.24,45-30.52,67.76,18-4.47,34.85-9,52-12.21C805.71,579.33,805.4,578.38,804.82,577Zm57,16.25c-7.35-.5-14.7-1.3-22.11-.82-2.21.15-2.66.71-1.79,2.86a303.22,303.22,0,0,0,12.72,28.27c4.6-10,8.7-19,12.82-28C864.28,593.86,863.47,593.39,861.84,593.26Zm80.55,18.22-35.92-86.15c-2.36,2.64-2.88,5.4-4,7.84-6.58,14.27-13.06,28.62-19.57,42.94-.87,1.93-1.82,3.55,1.53,4.51C905.45,586.59,924,597.28,942.39,611.48ZM672.93,627.72c2.61,6.26,2.18,6.82-4.57,6.77h-6.29c-11.83,0-11.83,0-16.51-10.88-3.16-7.38-6.44-14.7-9.47-22.13a12.45,12.45,0,0,0-5.49-6.42c-17-9.87-34.4-10.44-52.08-2a22.79,22.79,0,0,0-10.38,10c-.35.65-.68,1.32-1,2-.15.34-.3.68-.46,1-3.06,6.83-6.23,13.62-9.41,20.4L555.63,630c-1.68,3.58-6.77,5.61-10.39,4.14a2.64,2.64,0,0,1-.38-.18,1.55,1.55,0,0,1-1-1.21,2.28,2.28,0,0,1,.49-1.27,41.39,41.39,0,0,0,3.35-6.73,82.43,82.43,0,0,0-12.33-24.55,86.93,86.93,0,0,1-5.85,9l0,0h0c-6.9,8.83-14.52,15.6-22.79,20.21-15.24,8.5-32.94,9.25-46.19,2a43.29,43.29,0,0,1-17.87-19.4c-8.08-17-7.67-38.95,8.72-48.16,8.06-4.51,17.64-5.38,26.7-4.89a97.33,97.33,0,0,1,38.46,10.3c.87.45,1.73.9,2.58,1.36s1.52.84,2.39,1.35l.66.38.08-.75c1.42-14.83,2.29-32.21-2-48.69-4.63-17.66-15-31.87-28.49-39a50.21,50.21,0,0,0-28.91-5.25,48.9,48.9,0,0,0-25.54,10.63c-7.93,6.57-14.13,16.43-18.44,29.29a108.73,108.73,0,0,0,26.25,111.6l.07.06c1.78,1.78,3.66,3.52,5.58,5.2-18.63-2.65-36.21-14.54-47.22-32a83.22,83.22,0,0,1-7.79-16.07,101.94,101.94,0,0,1-5.56-40.25,91.86,91.86,0,0,1,9-35.53,75.27,75.27,0,0,1,23-28.11c12.11-8.8,27.76-13.86,44.09-14.23l2,0c26.43,0,51.25,12.36,65.14,32.56.7,1,1.37,2.06,2,3.08,7.53,12.28,11.71,27.6,12.09,44.29a102,102,0,0,1-4.4,32.72l0,0c-.38,1.28-.8,2.61-1.27,4s-1,2.77-1.6,4.23c.65.83,1.3,1.7,1.93,2.58a92.8,92.8,0,0,1,11,20.21c1.62-3.49,3.25-7,4.84-10.49.67-1.42,1.33-2.86,2-4.29,1.19-2.58,2.38-5.17,3.56-7.75q22.56-49.51,45.08-99.07c.82-1.79.94-4.46,3.69-4.44s2.82,2.72,3.57,4.52Q644.43,559.56,672.93,627.72Zm-155.54-45.1a1.52,1.52,0,0,0-.49-.62c-.11-.1-.24-.18-.37-.28a1.22,1.22,0,0,0-.19-.12l-.55-.37-.1-.07A100.8,100.8,0,0,0,474,565.61a42.21,42.21,0,0,0-13.4,0,19.61,19.61,0,0,0-13.07,8.59c-3.71,5.74-4.77,13.66-2.89,21.7a44.36,44.36,0,0,0,8.83,18.37,30.73,30.73,0,0,0,17.12,10.53l.2,0a31.33,31.33,0,0,0,20.43-3.47A47.5,47.5,0,0,0,507,607.09a60.65,60.65,0,0,0,10.39-23A2.6,2.6,0,0,0,517.39,582.62ZM627,578.68c-7.93-18.2-15.6-35.79-23.61-54.21-8.89,20.08-17.45,39.43-26.56,60,9.08-3.79,17-6.42,25.25-7.36A65.22,65.22,0,0,1,627,578.68Z" transform="translate(-389.98 -139.96)" fill="url(#Pantone_Metallics_10121_C)"/><path d="M738.25,201.59a241.72,241.72,0,0,1,24.21,40.77,79.31,79.31,0,0,0-15.92-7.86,220,220,0,0,0-15.32-24.58ZM767.14,343a66.28,66.28,0,0,1,5.43,17.65c7.33-15.95,9.92-37.21,7.18-60.28-4.24-4.35-8.66-9.11-13-14.25,5.87,24.23,4.2,42-1.27,53.57C766.05,340.73,766.61,341.83,767.14,343ZM683.93,189.58h0q-2.13-.66-4.29-1.11l-.19,0c-.71-.14-1.43-.27-2.14-.38h0c-.7-.1-1.4-.19-2.11-.25l-.18,0c-.72-.07-1.43-.11-2.14-.14h-.07c-.71,0-1.41,0-2.11,0h-.11c-.72,0-1.45.05-2.17.11h-.08c-.72.06-1.44.14-2.16.25h0c-.72.1-1.45.23-2.17.38l-.11,0a35.69,35.69,0,0,0-4.3,1.18l-.16,0a40.12,40.12,0,0,0-4.18,1.73,2.1,2.1,0,0,0-.26.13,40.07,40.07,0,0,0-4,2.24l-.4.25c-.65.42-1.3.86-1.94,1.32-22.26,16.05-25.32,52.86-15.19,90.18,1.21,4.42,2.6,8.86,4.14,13.27l4.4,11.25c2.32,5.42,4.91,10.77,7.74,15.95,14.91,27.41,36.57,50.55,62,59.61.87.31,1.72.59,2.57.86l.82.25c.58.18,1.15.34,1.72.5l.93.25,1.6.39.91.21c.57.12,1.13.24,1.69.34l.74.14c.8.14,1.59.27,2.37.37l.3,0c.68.08,1.36.16,2,.22l.77.05c.52,0,1,.08,1.54.1l.83,0h2.25c.54,0,1.08,0,1.61-.07l.57,0c.72-.05,1.44-.12,2.14-.2l.36-.05c.58-.07,1.16-.16,1.73-.25l.66-.12,1.41-.28.69-.17c.46-.11.92-.22,1.37-.35l.63-.17c.53-.16,1.06-.33,1.58-.51l.35-.11c.64-.23,1.28-.47,1.91-.73l.31-.13c.51-.22,1-.44,1.53-.68l.53-.25,1.29-.66.53-.3c.44-.24.87-.49,1.3-.75l.44-.26c.55-.35,1.09-.7,1.63-1.07l0,0,1.11-.81c-2.61-8.33-6.65-17-10.78-25.59-12,1.8-34.48-3.24-59.09-46-2.51-4.34-5-9.07-7.58-14.25-.88-1.79-1.73-3.61-2.53-5.42L672,278.91a154.94,154.94,0,0,1-5.44-18.35c-7.67-33.32-2.1-61.46,17.14-59,9.71,1.24,20.17,7.5,29.64,17h0l.81.39,39.69-42.35-6.57-6.46-33.16,39.34C704.86,200.05,694.54,192.87,683.93,189.58Zm122.7,60.51a227.35,227.35,0,0,0-6,82.88c7.61-16.85,10.16-41.43,10.87-50.67,0,.74.07,1.48.08,2.22.36,23-5.48,45.9-15.59,66.06-.59,1.17-1.2,2.33-1.82,3.48a109.66,109.66,0,0,0,1.78-12,106.77,106.77,0,0,0-.14-20.77,102.94,102.94,0,0,0-3-16.19c3-31.73-22.88-59-50.39-67.45,8.37,24.24,25.36,44.55,43,62.37-5.31-18.07-16.72-34.64-22.57-42.36a115.46,115.46,0,0,1,18.44,26.16,100.32,100.32,0,0,1,10.57,37.9,103.78,103.78,0,0,1-4.72,39c-1,3.12-2.14,6.16-3.39,9.16a110.54,110.54,0,0,1-14.65,24.87q-2.12,2.7-4.4,5.24a80.21,80.21,0,0,0,1.72-8.32c.2-1.36.36-2.73.49-4.1,8.81-28.09-6.46-61.45-32.83-70.5,5.12,20.56,20.69,43.29,26.9,64.76,1.7-17.91-4.66-33.48-8.41-40.89,9.44,14.34,13.67,32.74,10.32,50.05-.39,2.09-.88,4.15-1.45,6.18a29.55,29.55,0,0,1-10.08,15.35c-3.2,2.51-6.38,5.12-10,6.91-18.21,8.95-59.37,9.49-108.59-59.27a207,207,0,0,1-13.15-21c-2.27-4.1-4.4-8.31-6.38-12.58l-4.87-11c-1.17-2.87-2.31-5.77-3.36-8.69a228.34,228.34,0,0,1-13-54.63c-6.21-59.37,19.56-99.84,57.21-100.41,17.48-.26,45.58,14.65,70.91,44l7-8.29a215.49,215.49,0,0,0-18-18.61C678.8,141.21,638.47,130.26,603.29,150a91.33,91.33,0,0,0-16.92,12.37C537,207.56,540.69,285.25,560.63,340.22c2.3,6.34,3.89,9.81,8.88,19.92l.39.78c39,75.31,105.71,90.36,167.19,67.69a47.79,47.79,0,0,0,6.76-3.36A97.32,97.32,0,0,0,773.78,399,107.86,107.86,0,0,0,786,378.89c1.7-3.64,3.54-7.2,5.56-10.64a160.66,160.66,0,0,0,8.11-15.64A163.94,163.94,0,0,0,806,335.87a75,75,0,0,0,13.08-34.13C821.94,277.79,812.5,259.13,806.63,250.09Z" transform="translate(-389.98 -139.96)" fill="url(#Pantone_Metallics_10121_C-2)"/><polygon points="357.35 30.29 362.49 35.8 365.48 37.33 360.82 32.04 357.35 30.29" fill="url(#Pantone_Metallics_10121_C-3)"/><polygon points="362.49 35.8 324.19 78.96 327.18 80.09 365.48 37.33 362.49 35.8" fill="url(#Pantone_Metallics_10121_C-4)"/></svg>